PathFileType	4	(X/Y/Z)	OpenSim_Sub06_CSBaseline_Accel.trc
DataRate	CameraRate	NumFrames	NumMarkers	Units	OrigDataRate	OrigDataStartFrame	OrigNumFrames
100	100	31	8	m	100	1	8492
Frame#	Time	torso_imu_offset_imu	pelvis_imu_offset_imu	tibia_r_imu_offset_imu	femur_r_imu_offset_imu	tibia_l_imu_offset_imu	femur_l_imu_offset_imu	toes_r_imu_offset_imu	toes_l_imu_offset_imu
				X1	Y1	Z1	X2	Y2	Z2	X3	Y3	Z3	X4	Y4	Z4	X5	Y5	Z5	X6	Y6	Z6	X7	Y7	Z7	X8		Y8	Z8	

1	0	9.01359493	0.05484407	6.62569159	8.76208424	-0.16518935	4.87459607	9.62049209	1.51258225	2.49298498	9.68727181	-0.68841910	0.69015364	9.50931579	-1.49305984	2.10227432	9.58675919	-0.98541677	-1.51148163	4.51535709	-2.06112576	8.66300464	4.63146619	0.72070736	11.35359204
2	0.01000000	8.95247190	0.05660678	6.61765642	8.76820789	-0.15433756	4.91721185	9.61465661	1.45456474	2.53956109	9.66362731	-0.71199517	0.66574284	9.51347758	-1.51946647	2.09785740	9.59893691	-0.98700786	-1.49296010	4.50191621	-2.06319937	8.71251399	4.64737638	0.71515746	11.35288618
3	0.02000000	8.98853559	-0.00467841	6.62873880	8.76727128	-0.15942726	4.89876227	9.58994953	1.46940241	2.52459476	9.65685394	-0.68472405	0.70942894	9.49480694	-1.52903473	2.10685634	9.57812657	-1.00980879	-1.50658427	4.50423425	-2.05174206	8.68821499	4.64112079	0.70636793	11.37636048
4	0.03000000	9.01041279	0.01285237	6.67325365	8.76584146	-0.16818891	4.87209129	9.62945893	1.45801074	2.52761882	9.65394378	-0.69204162	0.68458029	9.50691909	-1.52266547	2.16802828	9.61390652	-0.99643514	-1.51077054	4.48567561	-2.06210454	8.67562924	4.63729176	0.70580051	11.38104053
5	0.04000000	9.05055548	0.02760197	6.70714516	8.76374428	-0.17532295	4.84625861	9.60514590	1.42441241	2.51981818	9.66841785	-0.72567495	0.68991112	9.51741673	-1.53315238	2.14014678	9.61628281	-0.99419085	-1.51091891	4.48215955	-2.06407503	8.67944652	4.64117664	0.71288935	11.35788272
6	0.05000000	8.96744023	0.02983759	6.70943115	8.78529701	-0.19807345	4.84487208	9.62334700	1.40182201	2.54013409	9.66833963	-0.71910650	0.72312839	9.49954694	-1.50601378	2.15761819	9.63434221	-0.99996399	-1.52822885	4.48592977	-2.05287115	8.64653831	4.65212344	0.69514753	11.38148995
7	0.06000000	8.90987890	-0.00947195	6.70307062	8.84243831	-0.21793665	4.86836823	9.59760316	1.38981412	2.50268199	9.70024191	-0.71831600	0.74805366	9.47826498	-1.50540208	2.17673728	9.61206868	-1.01822878	-1.51336472	4.49911678	-2.04667900	8.68163103	4.65193959	0.69175235	11.38672680
8	0.07000000	8.96375213	0.02959233	6.72635954	8.81993768	-0.19716290	4.86346493	9.61604213	1.44749721	2.50655426	9.66905468	-0.73368277	0.69765680	9.49762062	-1.53528990	2.15666625	9.62800967	-0.99614954	-1.49785729	4.49475727	-2.10365437	8.70502990	4.63337908	0.71178107	11.36406421
9	0.08000000	8.95333110	0.01956322	6.80786475	8.86495959	-0.19686830	4.85735249	9.60944638	1.39707693	2.51932408	9.69817291	-0.72281695	0.74700892	9.49425528	-1.52668755	2.11425774	9.64994309	-1.00309185	-1.51255290	4.49064395	-2.03431412	8.67713962	4.65792683	0.70448260	11.34175362
10	0.09000000	8.95111970	0.08007182	6.77679049	8.87030141	-0.18109690	4.82208505	9.63222619	1.44179759	2.52821803	9.67584536	-0.75822242	0.69399690	9.50674324	-1.54311313	2.11718762	9.62316181	-0.97580713	-1.52304850	4.48167127	-2.07945860	8.68991832	4.64138100	0.73153757	11.36956999
11	0.10000000	8.93166409	0.05854455	6.81919061	8.84619133	-0.19823290	4.85257599	9.58873780	1.48573641	2.52669532	9.68341980	-0.71529834	0.70504983	9.48976651	-1.55170841	2.13890138	9.62027355	-0.97191983	-1.52649409	4.52071181	-2.05976050	8.70940997	4.64515659	0.70148456	11.36960076
12	0.11000000	8.92535558	0.05755886	6.82774778	8.89105338	-0.18327369	4.81693803	9.60502491	1.49376195	2.51090622	9.65538669	-0.70087746	0.72885247	9.49948183	-1.53410885	2.08129178	9.62701089	-0.99747632	-1.50364115	4.48350969	-2.08195002	8.69744938	4.65082880	0.70486820	11.34602020
13	0.12000000	8.92411781	0.04019142	6.84710804	8.87656623	-0.20084759	4.84325170	9.58629904	1.48451479	2.52547079	9.67240389	-0.70624431	0.69428636	9.51993355	-1.56338964	2.12616047	9.65749607	-0.98720089	-1.52165751	4.50174079	-2.06019987	8.67017309	4.64202110	0.69724358	11.36702722
14	0.13000000	8.89628608	0.05428499	6.82233986	8.87332680	-0.17924868	4.83995877	9.61907367	1.52025462	2.49903181	9.66903320	-0.68986258	0.70303067	9.49514778	-1.52884311	2.11409630	9.55922734	-0.96332245	-1.53530397	4.49977774	-2.06920362	8.70412181	4.62855714	0.73074638	11.37728032
15	0.14000000	8.97001769	0.04993006	6.89957873	8.87330062	-0.20737125	4.82118487	9.58660042	1.48648322	2.52293864	9.66102762	-0.66910352	0.71547848	9.51482843	-1.52659035	2.13679209	9.57583204	-1.00016035	-1.56342745	4.48217630	-2.07280287	8.66436817	4.63348936	0.70076680	11.37195297
16	0.15000000	8.91816880	0.02849098	6.91472812	8.87315751	-0.21277926	4.81915094	9.63304664	1.51670681	2.51862313	9.66680482	-0.68019652	0.73939391	9.51917784	-1.56111394	2.13188658	9.61537976	-1.01211645	-1.56190582	4.49857095	-2.05342658	8.72742927	4.64265950	0.71625387	11.38082374
17	0.16000000	8.94304288	0.02771164	6.91594668	8.87409105	-0.21061974	4.82006375	9.57736687	1.53239983	2.52855242	9.68369979	-0.66488734	0.71765280	9.52033590	-1.56003921	2.13195091	9.59852089	-1.01661612	-1.58408484	4.51219753	-2.05655246	8.71861410	4.63933596	0.71768065	11.38532463
18	0.17000000	8.92125043	0.00452564	6.88215019	8.87068498	-0.24316177	4.80398623	9.62299398	1.49660124	2.49796940	9.65927849	-0.67138223	0.71781719	9.49476303	-1.60811544	2.12098415	9.63313349	-0.99143539	-1.55322350	4.50514818	-2.08215854	8.68808492	4.64554849	0.72524273	11.36125742
19	0.18000000	8.91135566	0.00689874	6.84233838	8.89775159	-0.23739265	4.81689832	9.59108613	1.48047575	2.52242197	9.70304146	-0.70407081	0.74614684	9.48687330	-1.63691838	2.14566872	9.62192339	-1.06824193	-1.57384902	4.49563613	-2.02382519	8.69094838	4.61523576	0.69309347	11.39804174
20	0.19000000	8.90339120	-0.00797691	6.81861357	8.88456592	-0.27131555	4.88602658	9.60351257	1.48510507	2.51371009	9.67614719	-0.70477329	0.73454485	9.49018681	-1.61473293	2.12464724	9.61886627	-1.07177347	-1.54392327	4.46493733	-2.06138149	8.68663391	4.65556675	0.70708386	11.37076533
21	0.20000000	8.91018485	-0.01796151	6.76732591	8.87368342	-0.24625383	4.82982443	9.63044033	1.46880621	2.49430625	9.70502949	-0.73840885	0.70584085	9.52169879	-1.58982249	2.12553701	9.59495715	-1.09320915	-1.55471825	4.43439811	-2.09068204	8.71012215	4.63850678	0.72455031	11.36547114
22	0.21000000	8.90616868	-0.01201933	6.72463363	8.88146957	-0.22618863	4.86642440	9.65121359	1.42203744	2.54047691	9.72550435	-0.71065283	0.71094202	9.48547896	-1.61909432	2.10721828	9.62358651	-1.13101586	-1.55443380	4.45254057	-2.11943501	8.70654703	4.61899027	0.70061031	11.35975388
23	0.22000000	8.89609886	-0.03271828	6.73883209	8.83699611	-0.27716933	4.89508201	9.64563154	1.36122793	2.59328698	9.71115588	-0.73741471	0.70912450	9.49299675	-1.63689741	2.11877817	9.57149986	-1.11937613	-1.50615645	4.44256201	-2.10667440	8.69524025	4.64478393	0.74983302	11.35346522
24	0.23000000	8.96682080	0.00338965	6.75263723	8.82666852	-0.24329316	4.85786371	9.57990562	1.34580056	2.55198620	9.69978642	-0.74082905	0.65427346	9.49594710	-1.66230724	2.06675441	9.58654900	-1.12198805	-1.55419316	4.48550913	-2.06654092	8.67767647	4.62937658	0.68175530	11.38485396
25	0.24000000	8.96198468	-0.05014740	6.75983249	8.83222401	-0.25758892	4.88332901	9.64047791	1.30819023	2.53680867	9.69531011	-0.77828808	0.66454385	9.45898996	-1.61282492	2.14716751	9.60486286	-1.36893977	-1.54849831	4.46225197	-2.09150230	8.70184521	4.62096111	0.77181985	11.38539376
26	0.25000000	8.98969486	-0.01521350	6.69052828	8.80998406	-0.25447348	4.91178109	9.60522134	1.34433177	2.53413760	9.64315061	-0.79221211	0.65358483	9.47847905	-1.64266234	2.17486940	9.71331139	-1.48379591	-1.65416460	4.48404155	-2.06976499	8.67985603	4.63373981	0.66990422	11.41490322
27	0.26000000	8.99270787	0.01084954	6.71598428	8.81080989	-0.27886113	4.92500231	9.58484984	1.33977881	2.51613216	9.64517355	-0.79930366	0.67396865	9.50370482	-1.64046749	2.15767407	9.29305963	-0.84896295	-1.44392833	4.45945833	-2.09158316	8.70151281	4.61329798	0.71319595	11.37884240
28	0.27000000	9.02518968	0.03504106	6.71030171	8.78019873	-0.27451558	4.87340461	9.60402987	1.41999255	2.48768739	9.66016385	-0.84212000	0.65540385	9.45609122	-1.62457582	2.17654586	9.63785254	-1.40284952	-1.46669429	4.48677603	-2.09389902	8.69269527	4.62991463	0.71197483	11.37592796
29	0.28000000	9.01828513	0.01771229	6.68171743	8.78414855	-0.28225423	4.92027405	9.62653912	1.40572458	2.50937546	9.65321220	-0.83729626	0.63182087	9.47290058	-1.62959420	2.20317098	9.64089002	-1.07428894	-1.55841430	4.48774875	-2.05260175	8.70722396	4.60131303	0.67413638	11.41588656
30	0.29000000	9.04574974	0.10667773	6.68980433	8.76311122	-0.31042823	4.94020148	9.61724180	1.42638432	2.42667745	9.65095261	-0.83720818	0.63327879	9.49293925	-1.55629047	2.20653629	9.64927899	-1.12948845	-1.60863784	4.48756135	-2.08820160	8.69514424	4.62153090	0.70300240	11.38833604
31	0.30000000	8.98634159	0.11847140	6.63806345	8.75407495	-0.29512956	4.90674083	9.64466097	1.46175803	2.42078666	9.66598207	-0.82114411	0.60854283	9.46986297	-1.53842883	2.18373771	9.69172321	-1.25105218	-1.41141341	4.46762897	-2.10598864	8.68559406	4.59299898	0.70796563	11.34932921
